<svg xmlns="http://www.w3.org/2000/svg" xmlns:xlink="http://www.w3.org/1999/xlink" width="500" zoomAndPan="magnify" viewBox="0 0 375 374.999991" height="500" preserveAspectRatio="xMidYMid meet" version="1.0" {{ $attributes }}><defs><clipPath id="26a80026da"><path d="M 86.25 0 L 288.75 0 L 288.75 375 L 86.25 375 Z M 86.25 0 " clip-rule="nonzero"/></clipPath></defs><path fill="#ffbc45" d="M 187.515625 51.195312 L 211.332031 29.808594 C 211.664062 29.484375 211.917969 29.109375 212.097656 28.683594 C 212.277344 28.257812 212.367188 27.816406 212.367188 27.351562 C 212.367188 26.890625 212.277344 26.445312 212.097656 26.019531 C 211.917969 25.59375 211.664062 25.21875 211.332031 24.898438 L 191.847656 7.417969 C 190.082031 5.839844 187.515625 7.289062 187.515625 9.878906 Z M 187.515625 51.195312 " fill-opacity="1" fill-rule="nonzero"/><path fill="#ffdbb8" d="M 121 292.453125 L 180.945312 362.003906 L 209.230469 348.101562 L 258.074219 292.453125 L 234.402344 295.832031 L 215.050781 273.769531 L 189.851562 295.394531 L 156.027344 276.527344 L 142.59375 294.632812 Z M 121 292.453125 " fill-opacity="1" fill-rule="nonzero"/><path fill="#617d9e" d="M 250.296875 289.859375 L 234.796875 294.792969 L 213.648438 274.550781 L 188.035156 294.378906 L 159.605469 276.527344 L 140.085938 295.929688 L 116.867188 288.652344 L 117.75 139.667969 L 91.175781 135.726562 L 91.175781 73.585938 L 129.820312 72.394531 L 129.820312 92.566406 L 163.0625 93.566406 L 166.84375 89.785156 L 168.359375 72.394531 L 204.402344 72.394531 L 209.238281 92.398438 L 242.589844 92.300781 L 245.117188 73.121094 L 283.328125 73.121094 L 284.886719 134.800781 L 258.074219 136.917969 L 257.242188 287.847656 Z M 250.296875 289.859375 " fill-opacity="1" fill-rule="nonzero"/><path fill="#e5bb98" d="M 187.46875 370.941406 L 254.652344 294.53125 L 230.511719 294.53125 L 215.050781 278.964844 Z M 187.46875 370.941406 " fill-opacity="1" fill-rule="nonzero"/><path fill="#fff1e6" d="M 187.203125 370.941406 L 120.019531 294.53125 L 144.160156 294.53125 L 159.617188 278.964844 Z M 187.203125 370.941406 " fill-opacity="1" fill-rule="nonzero"/><path fill="#a1bad3" d="M 133.609375 189.816406 L 118.050781 189.816406 L 118.050781 213.042969 L 117.308594 213.042969 L 116.957031 289.492188 L 131.761719 294.53125 L 142.59375 294.632812 L 146.558594 287.398438 L 146.558594 189.816406 Z M 133.609375 189.816406 " fill-opacity="1" fill-rule="nonzero"/><path fill="#a1bad3" d="M 118.050781 168.28125 L 146.566406 168.28125 L 146.566406 181.703125 L 118.050781 181.703125 Z M 118.050781 168.28125 " fill-opacity="1" fill-rule="nonzero"/><path fill="#a1bad3" d="M 118.050781 146.351562 L 146.566406 146.351562 L 146.566406 159.773438 L 118.050781 159.773438 Z M 118.050781 146.351562 " fill-opacity="1" fill-rule="nonzero"/><path fill="#a1bad3" d="M 90.144531 83.308594 L 116.964844 83.308594 L 116.964844 133.976562 L 90.144531 133.976562 Z M 90.144531 83.308594 " fill-opacity="1" fill-rule="nonzero"/><g clip-path="url(#26a80026da)"><path fill="#192128" d="M 281.113281 68.527344 L 247.332031 68.527344 C 246.832031 68.53125 246.335938 68.582031 245.847656 68.683594 C 245.355469 68.78125 244.878906 68.929688 244.417969 69.121094 C 243.957031 69.316406 243.515625 69.550781 243.101562 69.828125 C 242.683594 70.109375 242.300781 70.425781 241.945312 70.777344 C 241.589844 71.132812 241.273438 71.519531 240.996094 71.933594 C 240.71875 72.351562 240.480469 72.789062 240.289062 73.25 C 240.09375 73.714844 239.949219 74.1875 239.847656 74.679688 C 239.75 75.171875 239.699219 75.667969 239.695312 76.167969 L 239.695312 89.65625 L 212.074219 89.65625 L 212.074219 76.167969 C 212.074219 75.664062 212.023438 75.167969 211.925781 74.675781 C 211.828125 74.183594 211.683594 73.707031 211.492188 73.242188 C 211.300781 72.78125 211.066406 72.339844 210.785156 71.921875 C 210.507812 71.507812 210.191406 71.121094 209.835938 70.765625 C 209.480469 70.410156 209.09375 70.09375 208.679688 69.816406 C 208.261719 69.535156 207.820312 69.300781 207.359375 69.109375 C 206.894531 68.917969 206.417969 68.773438 205.925781 68.675781 C 205.433594 68.578125 204.9375 68.527344 204.433594 68.527344 L 191.449219 68.527344 L 191.449219 52.960938 L 215.234375 31.574219 C 215.613281 31.222656 215.949219 30.835938 216.246094 30.417969 C 216.542969 29.996094 216.792969 29.550781 216.996094 29.082031 C 217.203125 28.609375 217.355469 28.121094 217.460938 27.617188 C 217.566406 27.113281 217.617188 26.605469 217.617188 26.09375 C 217.617188 25.578125 217.566406 25.070312 217.460938 24.566406 C 217.355469 24.0625 217.203125 23.574219 216.996094 23.105469 C 216.792969 22.632812 216.542969 22.1875 216.246094 21.765625 C 215.949219 21.347656 215.613281 20.960938 215.234375 20.609375 L 194.71875 2.234375 C 194.257812 1.808594 193.75 1.460938 193.1875 1.1875 C 192.625 0.914062 192.035156 0.726562 191.421875 0.625 C 190.804688 0.527344 190.1875 0.515625 189.566406 0.597656 C 188.945312 0.679688 188.351562 0.847656 187.78125 1.101562 C 187.15625 1.394531 186.585938 1.773438 186.070312 2.230469 C 185.550781 2.691406 185.109375 3.214844 184.746094 3.800781 C 184.378906 4.386719 184.101562 5.015625 183.917969 5.679688 C 183.734375 6.347656 183.648438 7.027344 183.65625 7.71875 L 183.65625 68.527344 L 170.671875 68.527344 C 170.171875 68.527344 169.671875 68.578125 169.183594 68.675781 C 168.691406 68.773438 168.210938 68.917969 167.75 69.109375 C 167.285156 69.300781 166.84375 69.535156 166.429688 69.816406 C 166.011719 70.09375 165.625 70.410156 165.269531 70.765625 C 164.917969 71.121094 164.597656 71.507812 164.320312 71.921875 C 164.042969 72.339844 163.808594 72.78125 163.613281 73.242188 C 163.421875 73.707031 163.277344 74.183594 163.179688 74.675781 C 163.082031 75.167969 163.035156 75.664062 163.035156 76.167969 L 163.035156 89.65625 L 135.375 89.65625 L 135.375 76.167969 C 135.371094 75.664062 135.320312 75.167969 135.21875 74.675781 C 135.117188 74.183594 134.972656 73.707031 134.777344 73.242188 C 134.582031 72.777344 134.34375 72.339844 134.066406 71.921875 C 133.785156 71.503906 133.464844 71.121094 133.109375 70.765625 C 132.753906 70.410156 132.367188 70.09375 131.949219 69.816406 C 131.53125 69.539062 131.089844 69.304688 130.625 69.109375 C 130.160156 68.917969 129.683594 68.773438 129.191406 68.675781 C 128.695312 68.578125 128.199219 68.527344 127.695312 68.527344 L 93.886719 68.527344 C 93.386719 68.527344 92.890625 68.578125 92.398438 68.675781 C 91.90625 68.773438 91.429688 68.917969 90.964844 69.109375 C 90.503906 69.300781 90.0625 69.535156 89.644531 69.816406 C 89.226562 70.09375 88.84375 70.410156 88.488281 70.765625 C 88.132812 71.121094 87.816406 71.507812 87.539062 71.921875 C 87.257812 72.339844 87.023438 72.78125 86.832031 73.242188 C 86.640625 73.707031 86.496094 74.183594 86.398438 74.675781 C 86.300781 75.167969 86.25 75.664062 86.25 76.167969 L 86.25 133.128906 C 86.253906 133.628906 86.304688 134.125 86.402344 134.617188 C 86.503906 135.105469 86.648438 135.582031 86.839844 136.046875 C 87.035156 136.507812 87.269531 136.945312 87.550781 137.363281 C 87.828125 137.777344 88.144531 138.164062 88.5 138.519531 C 88.851562 138.871094 89.238281 139.1875 89.652344 139.46875 C 90.070312 139.746094 90.507812 139.984375 90.972656 140.175781 C 91.433594 140.367188 91.910156 140.515625 92.402344 140.613281 C 92.890625 140.714844 93.386719 140.765625 93.886719 140.765625 L 112.984375 140.765625 L 112.984375 288.652344 C 112.988281 289.167969 113.046875 289.675781 113.160156 290.179688 C 113.160156 290.230469 113.160156 290.285156 113.160156 290.332031 L 113.160156 290.398438 C 113.164062 290.425781 113.164062 290.449219 113.160156 290.476562 C 113.238281 290.765625 113.320312 291.050781 113.421875 291.324219 C 113.445312 291.375 113.46875 291.429688 113.488281 291.484375 C 113.589844 291.730469 113.695312 291.980469 113.816406 292.25 C 114.140625 292.835938 114.527344 293.378906 114.988281 293.867188 L 180.503906 371.605469 C 181.375 372.640625 182.425781 373.441406 183.652344 374.011719 C 184.878906 374.578125 186.171875 374.863281 187.523438 374.859375 C 189.449219 374.855469 191.195312 374.296875 192.769531 373.1875 C 193.425781 372.734375 194.007812 372.203125 194.527344 371.597656 L 216.273438 345.789062 L 260.027344 293.84375 C 260.308594 293.527344 260.5625 293.191406 260.792969 292.835938 C 261.070312 292.402344 261.308594 291.945312 261.503906 291.46875 L 261.546875 291.363281 C 261.644531 291.09375 261.726562 290.820312 261.792969 290.546875 C 261.796875 290.507812 261.796875 290.472656 261.792969 290.4375 L 261.792969 290.371094 C 261.792969 290.285156 261.792969 290.203125 261.832031 290.109375 C 261.929688 289.632812 261.980469 289.148438 261.984375 288.660156 L 261.984375 140.8125 L 281.113281 140.8125 C 281.613281 140.808594 282.109375 140.757812 282.597656 140.660156 C 283.089844 140.558594 283.566406 140.414062 284.027344 140.222656 C 284.492188 140.027344 284.929688 139.792969 285.347656 139.515625 C 285.761719 139.234375 286.148438 138.917969 286.5 138.5625 C 286.855469 138.210938 287.171875 137.824219 287.449219 137.410156 C 287.730469 136.992188 287.964844 136.554688 288.160156 136.089844 C 288.351562 135.628906 288.496094 135.152344 288.597656 134.660156 C 288.695312 134.171875 288.746094 133.675781 288.75 133.175781 L 288.75 76.167969 C 288.75 75.664062 288.699219 75.167969 288.601562 74.675781 C 288.503906 74.183594 288.359375 73.707031 288.167969 73.242188 C 287.976562 72.78125 287.742188 72.339844 287.460938 71.921875 C 287.183594 71.507812 286.867188 71.121094 286.511719 70.765625 C 286.15625 70.410156 285.773438 70.09375 285.355469 69.816406 C 284.9375 69.535156 284.496094 69.300781 284.035156 69.109375 C 283.570312 68.917969 283.09375 68.773438 282.601562 68.675781 C 282.109375 68.578125 281.613281 68.527344 281.113281 68.527344 Z M 191.441406 9.765625 L 209.652344 26.117188 L 191.441406 42.464844 Z M 210.371094 340.699219 C 208.601562 339.8125 206.789062 339.03125 204.933594 338.355469 C 203.074219 337.679688 201.183594 337.113281 199.257812 336.65625 C 197.335938 336.203125 195.390625 335.859375 193.425781 335.628906 C 191.464844 335.398438 189.492188 335.285156 187.515625 335.285156 C 185.539062 335.285156 183.566406 335.398438 181.601562 335.628906 C 179.640625 335.859375 177.695312 336.203125 175.769531 336.65625 C 173.847656 337.113281 171.957031 337.679688 170.097656 338.355469 C 168.238281 339.03125 166.425781 339.8125 164.660156 340.699219 L 127.5 296.609375 L 137.558594 299.542969 C 138.269531 299.75 138.992188 299.851562 139.734375 299.851562 C 140.472656 299.847656 141.195312 299.742188 141.90625 299.53125 C 142.613281 299.316406 143.277344 299.011719 143.898438 298.609375 C 144.519531 298.203125 145.066406 297.722656 145.546875 297.160156 L 159.792969 280.453125 L 182.785156 298.449219 C 183.460938 298.980469 184.203125 299.386719 185.011719 299.667969 C 185.824219 299.949219 186.65625 300.089844 187.515625 300.089844 C 188.371094 300.089844 189.207031 299.949219 190.015625 299.667969 C 190.828125 299.386719 191.570312 298.980469 192.242188 298.449219 L 215.34375 280.453125 L 229.582031 297.160156 C 230.0625 297.722656 230.613281 298.203125 231.230469 298.609375 C 231.851562 299.011719 232.515625 299.316406 233.226562 299.53125 C 233.933594 299.742188 234.65625 299.847656 235.398438 299.851562 C 236.136719 299.851562 236.859375 299.75 237.570312 299.542969 L 247.5 296.640625 Z M 254.300781 286.550781 L 235.449219 292.050781 L 221.1875 275.320312 C 220.5625 274.585938 219.828125 273.992188 218.980469 273.535156 L 218.980469 238.207031 C 218.992188 237.941406 218.976562 237.679688 218.933594 237.421875 C 218.894531 237.160156 218.824219 236.910156 218.734375 236.664062 C 218.640625 236.414062 218.523438 236.179688 218.382812 235.957031 C 218.246094 235.734375 218.082031 235.53125 217.902344 235.339844 C 217.71875 235.148438 217.519531 234.980469 217.304688 234.828125 C 217.089844 234.679688 216.859375 234.554688 216.617188 234.449219 C 216.375 234.347656 216.125 234.269531 215.867188 234.214844 C 215.609375 234.164062 215.351562 234.136719 215.085938 234.136719 C 214.824219 234.136719 214.5625 234.164062 214.304688 234.214844 C 214.046875 234.269531 213.796875 234.347656 213.554688 234.449219 C 213.3125 234.554688 213.085938 234.679688 212.867188 234.828125 C 212.652344 234.980469 212.453125 235.148438 212.273438 235.339844 C 212.089844 235.53125 211.929688 235.734375 211.789062 235.957031 C 211.648438 236.179688 211.53125 236.414062 211.441406 236.664062 C 211.347656 236.910156 211.28125 237.160156 211.238281 237.421875 C 211.199219 237.679688 211.183594 237.941406 211.195312 238.207031 L 211.195312 273.847656 C 210.996094 273.976562 210.804688 274.105469 210.621094 274.25 L 187.554688 292.269531 L 164.546875 274.257812 C 164.273438 274.050781 163.988281 273.859375 163.691406 273.6875 L 163.691406 226.921875 C 163.703125 226.660156 163.6875 226.398438 163.644531 226.140625 C 163.605469 225.878906 163.539062 225.625 163.445312 225.378906 C 163.351562 225.132812 163.234375 224.898438 163.097656 224.675781 C 162.957031 224.453125 162.796875 224.246094 162.613281 224.058594 C 162.429688 223.867188 162.234375 223.699219 162.015625 223.546875 C 161.800781 223.398438 161.570312 223.269531 161.328125 223.167969 C 161.085938 223.066406 160.835938 222.988281 160.578125 222.933594 C 160.320312 222.882812 160.0625 222.855469 159.796875 222.855469 C 159.535156 222.855469 159.273438 222.882812 159.015625 222.933594 C 158.757812 222.988281 158.511719 223.066406 158.269531 223.167969 C 158.027344 223.269531 157.796875 223.398438 157.582031 223.546875 C 157.363281 223.699219 157.164062 223.867188 156.984375 224.058594 C 156.800781 224.246094 156.640625 224.453125 156.5 224.675781 C 156.359375 224.898438 156.246094 225.132812 156.152344 225.378906 C 156.058594 225.625 155.992188 225.878906 155.949219 226.140625 C 155.910156 226.398438 155.894531 226.660156 155.90625 226.921875 L 155.90625 273.703125 C 155.171875 274.132812 154.527344 274.671875 153.972656 275.320312 L 139.71875 292.050781 L 120.792969 286.527344 L 120.792969 184.039062 L 137.144531 184.039062 L 137.144531 204.089844 C 137.132812 204.355469 137.148438 204.613281 137.191406 204.875 C 137.230469 205.132812 137.296875 205.386719 137.390625 205.632812 C 137.484375 205.878906 137.601562 206.113281 137.738281 206.335938 C 137.878906 206.558594 138.042969 206.765625 138.222656 206.957031 C 138.40625 207.148438 138.605469 207.316406 138.820312 207.464844 C 139.035156 207.617188 139.265625 207.742188 139.507812 207.847656 C 139.75 207.949219 140 208.027344 140.257812 208.082031 C 140.515625 208.132812 140.773438 208.160156 141.039062 208.160156 C 141.300781 208.160156 141.5625 208.132812 141.820312 208.082031 C 142.078125 208.027344 142.328125 207.949219 142.570312 207.847656 C 142.808594 207.742188 143.039062 207.617188 143.257812 207.464844 C 143.472656 207.316406 143.671875 207.148438 143.851562 206.957031 C 144.035156 206.765625 144.195312 206.558594 144.335938 206.335938 C 144.476562 206.113281 144.59375 205.878906 144.683594 205.632812 C 144.777344 205.386719 144.84375 205.132812 144.886719 204.875 C 144.925781 204.613281 144.941406 204.355469 144.929688 204.089844 L 144.929688 184.039062 L 185.214844 184.039062 L 185.214844 197.707031 L 155.882812 197.707031 C 155.382812 197.726562 154.902344 197.84375 154.445312 198.050781 C 153.988281 198.257812 153.589844 198.542969 153.242188 198.902344 C 152.894531 199.265625 152.628906 199.679688 152.441406 200.144531 C 152.253906 200.613281 152.160156 201.09375 152.160156 201.597656 C 152.160156 202.097656 152.253906 202.582031 152.441406 203.046875 C 152.628906 203.511719 152.894531 203.925781 153.242188 204.289062 C 153.589844 204.652344 153.988281 204.9375 154.445312 205.144531 C 154.902344 205.351562 155.382812 205.464844 155.882812 205.488281 L 254.300781 205.488281 Z M 133.050781 162.429688 L 161.175781 162.429688 L 161.175781 176.234375 L 120.753906 176.234375 L 120.753906 140.8125 L 137.144531 140.8125 L 137.144531 154.636719 L 133.050781 154.636719 C 132.535156 154.636719 132.039062 154.738281 131.5625 154.933594 C 131.082031 155.132812 130.664062 155.414062 130.296875 155.78125 C 129.933594 156.144531 129.652344 156.566406 129.453125 157.042969 C 129.253906 157.519531 129.15625 158.019531 129.15625 158.535156 C 129.15625 159.050781 129.253906 159.546875 129.453125 160.023438 C 129.652344 160.503906 129.933594 160.921875 130.296875 161.289062 C 130.664062 161.652344 131.082031 161.9375 131.5625 162.132812 C 132.039062 162.332031 132.535156 162.429688 133.050781 162.429688 Z M 168.953125 176.25 L 168.953125 162.429688 L 209.230469 162.429688 L 209.230469 176.234375 Z M 254.300781 197.707031 L 193 197.707031 L 193 184.039062 L 223.117188 184.039062 C 223.636719 184.039062 224.132812 183.941406 224.609375 183.742188 C 225.085938 183.546875 225.507812 183.265625 225.875 182.898438 C 226.238281 182.535156 226.519531 182.113281 226.71875 181.636719 C 226.914062 181.15625 227.015625 180.660156 227.015625 180.144531 C 227.015625 179.628906 226.914062 179.128906 226.71875 178.652344 C 226.519531 178.175781 226.238281 177.753906 225.875 177.390625 C 225.507812 177.023438 225.085938 176.742188 224.609375 176.542969 C 224.132812 176.347656 223.636719 176.25 223.117188 176.25 L 217.007812 176.25 L 217.007812 162.429688 L 239.296875 162.429688 C 239.8125 162.429688 240.3125 162.332031 240.789062 162.132812 C 241.265625 161.9375 241.6875 161.652344 242.050781 161.289062 C 242.417969 160.921875 242.699219 160.503906 242.898438 160.023438 C 243.09375 159.546875 243.191406 159.050781 243.191406 158.535156 C 243.191406 158.019531 243.09375 157.519531 242.898438 157.042969 C 242.699219 156.566406 242.417969 156.144531 242.050781 155.78125 C 241.6875 155.414062 241.265625 155.132812 240.789062 154.933594 C 240.3125 154.738281 239.8125 154.636719 239.296875 154.636719 L 193 154.636719 L 193 140.8125 L 254.300781 140.8125 Z M 281.035156 133.019531 L 184.214844 133.019531 C 183.699219 133.019531 183.203125 133.121094 182.722656 133.316406 C 182.246094 133.515625 181.824219 133.796875 181.460938 134.164062 C 181.09375 134.527344 180.8125 134.949219 180.617188 135.425781 C 180.417969 135.902344 180.320312 136.398438 180.320312 136.917969 C 180.320312 137.433594 180.417969 137.929688 180.617188 138.40625 C 180.8125 138.886719 181.09375 139.304688 181.460938 139.671875 C 181.824219 140.035156 182.246094 140.320312 182.722656 140.515625 C 183.203125 140.714844 183.699219 140.8125 184.214844 140.8125 L 185.214844 140.8125 L 185.214844 154.636719 L 144.929688 154.636719 L 144.929688 140.8125 L 155.890625 140.8125 C 156.40625 140.8125 156.90625 140.714844 157.382812 140.515625 C 157.859375 140.320312 158.28125 140.035156 158.644531 139.671875 C 159.011719 139.304688 159.292969 138.886719 159.492188 138.40625 C 159.6875 137.929688 159.785156 137.433594 159.785156 136.917969 C 159.785156 136.398438 159.6875 135.902344 159.492188 135.425781 C 159.292969 134.949219 159.011719 134.527344 158.644531 134.164062 C 158.28125 133.796875 157.859375 133.515625 157.382812 133.316406 C 156.90625 133.121094 156.40625 133.019531 155.890625 133.019531 L 94.019531 133.019531 L 94.019531 76.289062 L 127.582031 76.289062 L 127.582031 89.785156 C 127.585938 90.289062 127.636719 90.785156 127.734375 91.273438 C 127.835938 91.765625 127.980469 92.242188 128.175781 92.703125 C 128.367188 93.167969 128.601562 93.605469 128.882812 94.023438 C 129.160156 94.4375 129.476562 94.824219 129.832031 95.175781 C 130.183594 95.53125 130.570312 95.847656 130.988281 96.125 C 131.402344 96.40625 131.839844 96.640625 132.304688 96.832031 C 132.765625 97.027344 133.242188 97.171875 133.734375 97.273438 C 134.222656 97.371094 134.71875 97.421875 135.222656 97.425781 L 163.027344 97.425781 C 163.527344 97.421875 164.023438 97.371094 164.511719 97.273438 C 165.003906 97.171875 165.480469 97.027344 165.941406 96.832031 C 166.40625 96.640625 166.84375 96.40625 167.261719 96.125 C 167.675781 95.847656 168.0625 95.53125 168.417969 95.175781 C 168.769531 94.824219 169.085938 94.4375 169.367188 94.023438 C 169.644531 93.605469 169.878906 93.167969 170.074219 92.703125 C 170.265625 92.242188 170.410156 91.765625 170.511719 91.273438 C 170.609375 90.785156 170.660156 90.289062 170.664062 89.785156 L 170.664062 76.289062 L 204.214844 76.289062 L 204.214844 89.785156 C 204.214844 90.289062 204.265625 90.785156 204.367188 91.277344 C 204.46875 91.769531 204.613281 92.25 204.808594 92.710938 C 205.003906 93.175781 205.238281 93.617188 205.519531 94.035156 C 205.800781 94.449219 206.117188 94.835938 206.476562 95.191406 C 206.832031 95.542969 207.21875 95.859375 207.636719 96.140625 C 208.054688 96.417969 208.496094 96.652344 208.960938 96.84375 C 209.425781 97.035156 209.902344 97.179688 210.398438 97.277344 C 210.890625 97.375 211.386719 97.425781 211.890625 97.425781 L 239.785156 97.425781 C 240.289062 97.425781 240.785156 97.375 241.28125 97.277344 C 241.773438 97.179688 242.25 97.035156 242.714844 96.84375 C 243.179688 96.652344 243.621094 96.417969 244.039062 96.140625 C 244.457031 95.859375 244.84375 95.542969 245.203125 95.191406 C 245.558594 94.835938 245.875 94.449219 246.15625 94.035156 C 246.4375 93.617188 246.675781 93.175781 246.867188 92.710938 C 247.0625 92.25 247.210938 91.769531 247.308594 91.277344 C 247.410156 90.785156 247.460938 90.289062 247.464844 89.785156 L 247.464844 76.289062 L 281.035156 76.289062 Z M 281.035156 133.019531 " fill-opacity="1" fill-rule="nonzero"/></g></svg>
